<svg height="540" node-id="1" sillyvg="true" template-height="540" template-width="960" version="1.1" viewBox="0 0 960 540" width="960" xmlns="http://www.w3.org/2000/svg" xmlns:xlink="http://www.w3.org/1999/xlink"><defs node-id="120"></defs><g node-id="275"><g node-id="293"><path d="M 820.00 509.90 L 819.70 495.70 L 818.90 481.80 L 817.50 468.10 L 815.50 454.60 L 813.10 441.30 L 810.10 428.10 L 806.60 415.10 L 802.60 402.30 L 798.20 389.80 L 793.30 377.50 L 787.90 365.40 L 782.00 353.60 L 775.80 342.00 L 769.10 330.70 L 761.90 319.80 L 754.40 309.00 L 746.50 298.60 L 738.20 288.60 L 729.50 278.80 L 720.40 269.40 L 711.00 260.40 L 701.30 251.70 L 691.20 243.40 L 680.80 235.50 L 670.10 227.90 L 659.10 220.80 L 647.80 214.10 L 636.30 207.80 L 624.50 202.00 L 612.30 196.60 L 600.10 191.60 L 587.50 187.20 L 574.80 183.20 L 561.80 179.80 L 548.50 176.80 L 535.20 174.30 L 521.70 172.40 L 508.00 171.00 L 494.10 170.10 L 480.00 169.90 L 465.90 170.10 L 452.00 171.00 L 438.30 172.40 L 424.80 174.30 L 411.50 176.80 L 398.20 179.80 L 385.20 183.20 L 372.50 187.20 L 359.90 191.60 L 347.70 196.60 L 335.50 202.00 L 323.70 207.80 L 312.20 214.10 L 300.90 220.80 L 289.90 227.90 L 279.20 235.50 L 268.80 243.40 L 258.70 251.70 L 249.00 260.40 L 239.60 269.40 L 230.50 278.80 L 221.80 288.60 L 213.50 298.60 L 205.60 309.00 L 198.10 319.80 L 190.90 330.70 L 184.20 342.00 L 178.00 353.60 L 172.10 365.40 L 166.70 377.50 L 161.80 389.80 L 157.40 402.30 L 153.40 415.10 L 149.90 428.10 L 146.90 441.30 L 144.50 454.60 L 142.50 468.10 L 141.10 481.80 L 140.30 495.70 L 140.00 509.90" fill="#69baf9" fill-opacity="0.2" fill-rule="nonzero" group-id="1,19" id="路径_1806" node-id="3" stroke="none" target-height="340" target-width="680" target-x="140" target-y="169.9"/></g><g node-id="294"><path d="M 727.60 509.90 L 727.30 498.10 L 726.50 486.50 L 725.20 475.20 L 723.40 464.00 L 721.10 453.10 L 718.20 442.10 L 715.00 431.50 L 711.20 421.10 L 707.10 410.90 L 702.40 400.90 L 697.40 391.10 L 691.90 381.70 L 686.10 372.50 L 679.80 363.60 L 673.20 354.90 L 666.20 346.60 L 658.90 338.60 L 651.20 330.90 L 643.20 323.60 L 634.80 316.60 L 626.20 309.90 L 617.30 303.70 L 608.10 297.80 L 598.60 292.40 L 588.80 287.30 L 578.90 282.70 L 568.70 278.50 L 558.30 274.80 L 547.60 271.50 L 536.70 268.70 L 525.70 266.40 L 514.60 264.50 L 503.20 263.20 L 491.70 262.40 L 479.90 262.10 L 468.10 262.40 L 456.60 263.20 L 445.20 264.50 L 434.10 266.40 L 423.10 268.70 L 412.20 271.50 L 401.50 274.80 L 391.10 278.50 L 380.90 282.70 L 371.00 287.30 L 361.20 292.40 L 351.70 297.80 L 342.50 303.70 L 333.60 309.90 L 325.00 316.60 L 316.60 323.60 L 308.60 330.90 L 300.90 338.60 L 293.60 346.60 L 286.60 354.90 L 280.00 363.60 L 273.70 372.50 L 267.90 381.70 L 262.40 391.10 L 257.40 400.90 L 252.70 410.90 L 248.60 421.10 L 244.80 431.50 L 241.60 442.10 L 238.70 453.10 L 236.40 464.00 L 234.60 475.20 L 233.30 486.50 L 232.50 498.10 L 232.20 509.90" fill="#69baf9" fill-opacity="0.5" fill-rule="nonzero" group-id="1,20" id="路径_1807" node-id="4" stroke="none" target-height="247.79999" target-width="495.39996" target-x="232.2" target-y="262.1"/></g><path d="M 635.60 509.90 L 635.40 501.20 L 634.70 492.80 L 633.60 484.60 L 632.10 476.50 L 630.20 468.60 L 627.80 460.70 L 625.00 453.10 L 621.90 445.60 L 618.50 438.40 L 614.60 431.40 L 609.30 422.90 L 603.50 414.90 L 597.20 407.20 L 590.40 399.90 L 583.20 393.10 L 575.50 386.80 L 567.50 380.90 L 559.00 375.60 L 552.00 371.70 L 544.90 368.20 L 537.50 365.00 L 529.80 362.20 L 522.00 359.80 L 514.10 357.80 L 506.00 356.30 L 497.80 355.20 L 489.30 354.50 L 480.70 354.20 L 472.10 354.40 L 463.70 355.10 L 455.40 356.20 L 447.40 357.70 L 439.40 359.60 L 431.60 362.00 L 423.90 364.70 L 416.50 367.90 L 409.30 371.30 L 402.30 375.20 L 393.80 380.50 L 385.70 386.30 L 378.10 392.60 L 370.80 399.40 L 364.00 406.60 L 357.70 414.20 L 351.80 422.30 L 346.50 430.70 L 342.60 437.70 L 339.10 444.90 L 335.90 452.30 L 333.10 459.90 L 330.70 467.80 L 328.70 475.70 L 327.20 483.80 L 326.00 492.00 L 325.30 500.40 L 325.10 509.90" fill="#69baf9" fill-opacity="0.7" fill-rule="nonzero" group-id="1,21" id="路径_1808" node-id="5" stroke="none" target-height="155.69998" target-width="310.49997" target-x="325.1" target-y="354.2"/></g><g node-id="276"><path d="M 735.00 505.00 L 471.00 505.00" fill="none" group-id="2" id="直线_15" node-id="7" stroke="#3d3d63" stroke-linecap="round" stroke-width="10" target-height="0" target-width="264" target-x="471" target-y="505"/><path d="M 814.00 505.00 L 756.00 505.00" fill="none" group-id="2" id="直线_16" node-id="8" stroke="#3d3d63" stroke-linecap="round" stroke-width="10" target-height="0" target-width="58" target-x="756" target-y="505"/><path d="M 419.00 505.00 L 359.00 505.00" fill="none" group-id="2" id="直线_18" node-id="9" stroke="#3d3d63" stroke-linecap="round" stroke-width="10" target-height="0" target-width="60" target-x="359" target-y="505"/><path d="M 324.00 505.00 L 146.00 505.00" fill="none" group-id="2" id="直线_259" node-id="10" stroke="#3d3d63" stroke-linecap="round" stroke-width="10" target-height="0" target-width="178" target-x="146" target-y="505"/><path d="M 447.00 505.00 L 446.30 507.00 L 445.50 507.80 L 444.00 508.70 L 442.00 509.00 L 440.00 508.70 L 438.50 507.80 L 437.20 506.10 L 437.00 505.00 L 437.70 503.00 L 438.50 502.20 L 440.00 501.30 L 442.00 501.00 L 444.00 501.30 L 445.50 502.20 L 446.30 503.00 L 447.00 505.00 Z" fill="#3d3d63" fill-rule="nonzero" group-id="2" id="椭圆_336" node-id="11" stroke="none" target-height="8" target-width="10" target-x="437" target-y="501"/></g><path d="M 568.30 239.50 L 695.20 239.50 L 695.20 474.50 L 543.80 474.50 L 543.80 263.90 L 544.10 260.60 L 544.70 257.40 L 545.80 254.40 L 547.20 251.60 L 548.90 249.00 L 553.30 244.60 L 555.90 242.90 L 558.80 241.40 L 561.80 240.40 L 564.90 239.70 L 568.30 239.50 Z" fill="#eeeeee" fill-rule="nonzero" node-id="143" stroke="none" target-height="235" target-width="151.40002" target-x="543.8" target-y="239.5"/><path d="M 565.00 242.00 L 680.00 242.00 L 681.80 242.20 L 685.00 243.40 L 686.50 244.40 L 688.60 247.00 L 689.80 250.20 L 690.00 252.00 L 690.00 462.00 L 689.40 465.50 L 688.60 467.00 L 686.50 469.60 L 683.50 471.40 L 680.00 472.00 L 559.00 472.00 L 557.20 471.80 L 554.00 470.60 L 552.50 469.60 L 550.40 467.00 L 549.20 463.80 L 549.00 462.00 L 549.00 258.00 L 549.30 255.10 L 550.00 252.40 L 551.20 249.90 L 552.80 247.70 L 554.70 245.80 L 556.90 244.20 L 559.40 243.00 L 562.10 242.30 L 565.00 242.00 Z" fill="none" node-id="145" stroke="#3d3d63" stroke-linecap="butt" stroke-width="20" target-height="230" target-width="141" target-x="549" target-y="242"/><path d="M 266.30 241.80 L 390.70 241.80 L 394.00 242.10 L 397.10 242.70 L 400.00 243.70 L 402.80 245.10 L 405.30 246.80 L 409.70 251.20 L 412.80 256.50 L 413.80 259.40 L 414.40 262.50 L 414.70 265.80 L 414.70 472.20 L 266.30 472.20 L 266.30 241.80 Z" fill="#eeeeee" fill-rule="nonzero" node-id="147" stroke="none" target-height="230.40001" target-width="148.40002" target-x="266.3" target-y="241.8"/><path d="M 280.00 242.00 L 395.00 242.00 L 397.90 242.30 L 400.60 243.00 L 403.10 244.20 L 405.30 245.80 L 407.20 247.70 L 408.80 249.90 L 410.00 252.40 L 410.70 255.10 L 411.00 258.00 L 411.00 462.00 L 410.40 465.50 L 408.60 468.50 L 406.00 470.60 L 404.50 471.40 L 401.00 472.00 L 280.00 472.00 L 278.20 471.80 L 275.00 470.60 L 273.50 469.60 L 271.40 467.00 L 270.20 463.80 L 270.00 462.00 L 270.00 252.00 L 270.60 248.50 L 272.40 245.50 L 275.00 243.40 L 276.50 242.60 L 280.00 242.00 Z" fill="none" node-id="149" stroke="#3d3d63" stroke-linecap="butt" stroke-width="20" target-height="230" target-width="141" target-x="270" target-y="242"/><path d="M 447.90 101.50 L 512.10 101.50 L 517.40 101.80 L 522.60 102.40 L 527.50 103.40 L 532.40 104.80 L 537.10 106.60 L 545.90 111.20 L 550.00 113.90 L 557.50 120.30 L 563.90 127.80 L 566.60 131.90 L 571.20 140.70 L 573.00 145.40 L 574.40 150.30 L 575.40 155.20 L 576.00 160.40 L 576.30 165.70 L 576.30 465.50 L 383.80 465.50 L 383.80 165.70 L 384.00 160.40 L 384.60 155.20 L 385.60 150.30 L 387.00 145.40 L 390.90 136.20 L 396.10 127.80 L 399.20 123.90 L 406.10 117.00 L 414.10 111.20 L 418.40 108.70 L 427.60 104.80 L 432.50 103.40 L 437.40 102.40 L 442.60 101.80 L 447.90 101.50 Z" fill="#eeeeee" fill-rule="nonzero" node-id="151" stroke="none" target-height="364" target-width="192.5" target-x="383.8" target-y="101.5"/><path d="M 445.00 95.00 L 515.00 95.00 L 524.80 95.80 L 534.00 98.10 L 538.40 99.70 L 546.60 104.00 L 550.40 106.60 L 555.20 110.50 L 559.50 114.80 L 563.40 119.60 L 566.00 123.40 L 570.30 131.60 L 571.90 136.00 L 574.20 145.20 L 575.00 155.00 L 575.00 462.00 L 574.40 465.50 L 573.60 467.00 L 571.50 469.60 L 568.50 471.40 L 565.00 472.00 L 395.00 472.00 L 393.20 471.80 L 390.00 470.60 L 387.40 468.50 L 385.60 465.50 L 385.00 462.00 L 385.00 155.00 L 385.80 145.20 L 388.10 136.00 L 391.70 127.40 L 396.60 119.60 L 400.50 114.80 L 404.80 110.50 L 409.60 106.60 L 413.40 104.00 L 421.60 99.70 L 430.60 96.70 L 435.20 95.80 L 445.00 95.00 Z" fill="none" node-id="153" stroke="#3d3d63" stroke-linecap="butt" stroke-width="20" target-height="377" target-width="190" target-x="385" target-y="95"/><path d="M 425.20 358.60 L 534.80 358.60 L 534.80 473.40 L 425.20 473.40 Z" fill="#ffffff" fill-rule="nonzero" node-id="155" stroke="none" target-height="114.79999" target-width="109.599976" target-x="425.2" target-y="358.6"/><path d="M 427.00 360.00 L 533.00 360.00 L 533.00 472.00 L 427.00 472.00 Z" fill="none" node-id="157" stroke="#3d3d63" stroke-linecap="butt" stroke-width="20" target-height="112" target-width="106" target-x="427" target-y="360"/><path d="M 412.00 360.00 L 548.00 360.00" fill="none" id="直线_343" node-id="20" stroke="#3d3d63" stroke-linecap="round" stroke-width="20" target-height="0" target-width="136" target-x="412" target-y="360"/><path d="M 462.00 350.00 L 462.00 482.00" fill="none" id="直线_344" node-id="21" stroke="#3d3d63" stroke-linecap="butt" stroke-width="20" target-height="132" target-width="0" target-x="462" target-y="350"/><path d="M 498.00 350.00 L 498.00 482.00" fill="none" id="直线_345" node-id="22" stroke="#3d3d63" stroke-linecap="butt" stroke-width="20" target-height="132" target-width="0" target-x="498" target-y="350"/><g node-id="277"><path d="M 446.00 270.00 L 460.00 270.00 L 464.20 270.80 L 467.70 272.80 L 470.40 275.90 L 471.20 277.80 L 472.00 282.00 L 471.80 315.20 L 471.20 317.20 L 469.20 320.70 L 466.10 323.40 L 462.20 324.80 L 446.00 325.00 L 441.80 324.20 L 438.30 322.20 L 435.60 319.10 L 434.80 317.20 L 434.00 313.00 L 434.20 279.80 L 435.60 275.90 L 438.30 272.80 L 441.80 270.80 L 446.00 270.00 Z" fill="#ffffff" fill-rule="nonzero" group-id="3" node-id="163" stroke="none" target-height="55" target-width="38" target-x="434" target-y="270"/><path d="M 446.00 275.00 L 460.00 275.00 L 461.90 275.30 L 463.50 276.00 L 464.90 277.10 L 466.00 278.50 L 466.70 280.10 L 467.00 282.00 L 467.00 313.00 L 466.70 314.90 L 466.00 316.50 L 464.90 317.90 L 463.50 319.00 L 461.90 319.70 L 460.00 320.00 L 446.00 320.00 L 444.10 319.70 L 442.50 319.00 L 441.10 317.90 L 440.00 316.50 L 439.30 314.90 L 439.00 313.00 L 439.00 282.00 L 439.30 280.10 L 440.00 278.50 L 441.10 277.10 L 442.50 276.00 L 444.10 275.30 L 446.00 275.00 Z" fill="none" group-id="3" node-id="165" stroke="#3d3d63" stroke-linecap="butt" stroke-width="10" target-height="45" target-width="28" target-x="439" target-y="275"/></g><g node-id="278"><path d="M 500.00 270.00 L 514.00 270.00 L 518.20 270.80 L 521.70 272.80 L 524.40 275.90 L 525.20 277.80 L 526.00 282.00 L 525.80 315.20 L 525.20 317.20 L 523.20 320.70 L 520.10 323.40 L 516.20 324.80 L 500.00 325.00 L 495.80 324.20 L 492.30 322.20 L 489.60 319.10 L 488.80 317.20 L 488.00 313.00 L 488.20 279.80 L 489.60 275.90 L 492.30 272.80 L 495.80 270.80 L 500.00 270.00 Z" fill="#ffffff" fill-rule="nonzero" group-id="4" node-id="169" stroke="none" target-height="55" target-width="38" target-x="488" target-y="270"/><path d="M 500.00 275.00 L 514.00 275.00 L 515.90 275.30 L 517.50 276.00 L 518.90 277.10 L 520.00 278.50 L 520.70 280.10 L 521.00 282.00 L 521.00 313.00 L 520.70 314.90 L 520.00 316.50 L 518.90 317.90 L 517.50 319.00 L 515.90 319.70 L 514.00 320.00 L 500.00 320.00 L 498.10 319.70 L 496.50 319.00 L 495.10 317.90 L 494.00 316.50 L 493.30 314.90 L 493.00 313.00 L 493.00 282.00 L 493.30 280.10 L 494.00 278.50 L 495.10 277.10 L 496.50 276.00 L 498.10 275.30 L 500.00 275.00 Z" fill="none" group-id="4" node-id="171" stroke="#3d3d63" stroke-linecap="butt" stroke-width="10" target-height="45" target-width="28" target-x="493" target-y="275"/></g><path d="M 447.00 203.00 L 513.00 203.00" fill="none" id="直线_239" node-id="29" stroke="#f4494e" stroke-linecap="butt" stroke-width="30" target-height="0" target-width="66" target-x="447" target-y="203"/><path d="M 480.00 169.00 L 480.00 235.00" fill="none" id="直线_346" node-id="30" stroke="#f4494e" stroke-linecap="butt" stroke-width="30" target-height="66" target-width="0" target-x="480" target-y="169"/><path d="M 575.00 199.00 L 690.50 199.00 L 710.40 241.80 L 575.00 241.80 L 575.00 199.00 Z" fill="#ffffff" fill-rule="nonzero" id="路径_2272" node-id="31" stroke="#3d3d63" stroke-linecap="round" stroke-width="20" target-height="42.800003" target-width="135.40002" target-x="575" target-y="199"/><path d="M 384.40 199.00 L 268.90 199.00 L 249.00 241.80 L 384.40 241.80 L 384.40 199.00 Z" fill="#ffffff" fill-rule="nonzero" id="路径_2274" node-id="32" stroke="#3d3d63" stroke-linecap="round" stroke-width="20" target-height="42.800003" target-width="135.4" target-x="249" target-y="199"/><path d="M 480.00 108.60 L 382.30 164.00 L 361.00 127.60 L 479.80 60.00 L 599.00 127.60 L 577.70 164.00 L 480.00 108.60 Z" fill="#ffffff" fill-rule="nonzero" id="联合_32" node-id="33" stroke="#3d3d63" stroke-linecap="round" stroke-width="20" target-height="104" target-width="238" target-x="361" target-y="60"/><g node-id="279"><path d="M 598.00 280.00 L 619.80 280.20 L 623.00 281.40 L 624.50 282.40 L 626.60 285.00 L 627.80 288.20 L 628.00 290.00 L 627.80 311.80 L 626.60 315.00 L 624.50 317.60 L 621.50 319.40 L 619.80 319.80 L 596.20 319.80 L 593.00 318.60 L 590.40 316.50 L 589.40 315.00 L 588.20 311.80 L 588.00 310.00 L 588.20 288.20 L 589.40 285.00 L 591.50 282.40 L 594.50 280.60 L 598.00 280.00 Z" fill="#ffffff" fill-rule="nonzero" group-id="5" node-id="180" stroke="none" target-height="39.799988" target-width="40" target-x="588" target-y="280"/><path d="M 598.00 285.00 L 618.00 285.00 L 620.50 285.70 L 622.30 287.50 L 623.00 290.00 L 623.00 310.00 L 622.30 312.50 L 620.50 314.30 L 619.40 314.80 L 598.00 315.00 L 595.50 314.30 L 593.70 312.50 L 593.00 310.00 L 593.20 288.60 L 593.70 287.50 L 595.50 285.70 L 598.00 285.00 Z" fill="none" group-id="5" node-id="182" stroke="#3d3d63" stroke-linecap="butt" stroke-width="10" target-height="30" target-width="30" target-x="593" target-y="285"/></g><g node-id="280"><path d="M 647.00 280.00 L 668.80 280.20 L 672.00 281.40 L 673.50 282.40 L 675.60 285.00 L 676.80 288.20 L 677.00 290.00 L 676.80 311.80 L 676.40 313.50 L 674.60 316.50 L 672.00 318.60 L 668.80 319.80 L 645.20 319.80 L 642.00 318.60 L 640.50 317.60 L 638.40 315.00 L 637.20 311.80 L 637.00 310.00 L 637.20 288.20 L 638.40 285.00 L 640.50 282.40 L 643.50 280.60 L 647.00 280.00 Z" fill="#ffffff" fill-rule="nonzero" group-id="6" node-id="186" stroke="none" target-height="39.799988" target-width="40" target-x="637" target-y="280"/><path d="M 647.00 285.00 L 667.00 285.00 L 669.50 285.70 L 671.30 287.50 L 672.00 290.00 L 672.00 310.00 L 671.30 312.50 L 669.50 314.30 L 668.40 314.80 L 647.00 315.00 L 644.50 314.30 L 642.70 312.50 L 642.00 310.00 L 642.20 288.60 L 642.70 287.50 L 644.50 285.70 L 647.00 285.00 Z" fill="none" group-id="6" node-id="188" stroke="#3d3d63" stroke-linecap="butt" stroke-width="10" target-height="30" target-width="30" target-x="642" target-y="285"/></g><g node-id="281"><path d="M 598.00 340.00 L 619.80 340.20 L 623.00 341.40 L 625.60 343.50 L 626.60 345.00 L 627.80 348.20 L 628.00 350.00 L 627.80 371.80 L 627.40 373.50 L 625.60 376.50 L 623.00 378.60 L 619.80 379.80 L 596.20 379.80 L 593.00 378.60 L 590.40 376.50 L 589.40 375.00 L 588.20 371.80 L 588.00 370.00 L 588.20 348.20 L 589.40 345.00 L 591.50 342.40 L 594.50 340.60 L 598.00 340.00 Z" fill="#ffffff" fill-rule="nonzero" group-id="7" node-id="192" stroke="none" target-height="39.799988" target-width="40" target-x="588" target-y="340"/><path d="M 598.00 345.00 L 618.00 345.00 L 620.50 345.70 L 622.30 347.50 L 623.00 350.00 L 623.00 370.00 L 622.30 372.50 L 620.50 374.30 L 619.40 374.80 L 598.00 375.00 L 595.50 374.30 L 593.70 372.50 L 593.00 370.00 L 593.20 348.60 L 593.70 347.50 L 595.50 345.70 L 598.00 345.00 Z" fill="none" group-id="7" node-id="194" stroke="#3d3d63" stroke-linecap="butt" stroke-width="10" target-height="30" target-width="30" target-x="593" target-y="345"/></g><g node-id="282"><path d="M 647.00 340.00 L 668.80 340.20 L 672.00 341.40 L 673.50 342.40 L 675.60 345.00 L 676.80 348.20 L 677.00 350.00 L 676.80 371.80 L 676.40 373.50 L 674.60 376.50 L 672.00 378.60 L 668.80 379.80 L 645.20 379.80 L 642.00 378.60 L 639.40 376.50 L 638.40 375.00 L 637.20 371.80 L 637.00 370.00 L 637.20 348.20 L 638.40 345.00 L 640.50 342.40 L 643.50 340.60 L 647.00 340.00 Z" fill="#ffffff" fill-rule="nonzero" group-id="8" node-id="198" stroke="none" target-height="39.799988" target-width="40" target-x="637" target-y="340"/><path d="M 647.00 345.00 L 667.00 345.00 L 669.50 345.70 L 671.30 347.50 L 672.00 350.00 L 672.00 370.00 L 671.30 372.50 L 669.50 374.30 L 668.40 374.80 L 647.00 375.00 L 644.50 374.30 L 642.70 372.50 L 642.00 370.00 L 642.20 348.60 L 642.70 347.50 L 644.50 345.70 L 647.00 345.00 Z" fill="none" group-id="8" node-id="200" stroke="#3d3d63" stroke-linecap="butt" stroke-width="10" target-height="30" target-width="30" target-x="642" target-y="345"/></g><g node-id="283"><path d="M 293.00 280.00 L 314.80 280.20 L 318.00 281.40 L 319.50 282.40 L 321.60 285.00 L 322.80 288.20 L 323.00 290.00 L 322.80 311.80 L 322.40 313.50 L 320.60 316.50 L 318.00 318.60 L 314.80 319.80 L 291.20 319.80 L 288.00 318.60 L 286.50 317.60 L 284.40 315.00 L 283.20 311.80 L 283.00 310.00 L 283.20 288.20 L 284.40 285.00 L 286.50 282.40 L 289.50 280.60 L 293.00 280.00 Z" fill="#ffffff" fill-rule="nonzero" group-id="9" node-id="204" stroke="none" target-height="39.799988" target-width="40" target-x="283" target-y="280"/><path d="M 293.00 285.00 L 313.00 285.00 L 315.50 285.70 L 317.30 287.50 L 318.00 290.00 L 318.00 310.00 L 317.30 312.50 L 315.50 314.30 L 314.40 314.80 L 293.00 315.00 L 290.50 314.30 L 288.70 312.50 L 288.00 310.00 L 288.20 288.60 L 288.70 287.50 L 290.50 285.70 L 293.00 285.00 Z" fill="none" group-id="9" node-id="206" stroke="#3d3d63" stroke-linecap="butt" stroke-width="10" target-height="30" target-width="30" target-x="288" target-y="285"/></g><g node-id="284"><path d="M 342.00 280.00 L 363.80 280.20 L 367.00 281.40 L 368.50 282.40 L 370.60 285.00 L 371.80 288.20 L 372.00 290.00 L 371.80 311.80 L 371.40 313.50 L 369.60 316.50 L 367.00 318.60 L 363.80 319.80 L 340.20 319.80 L 337.00 318.60 L 335.50 317.60 L 333.40 315.00 L 332.20 311.80 L 332.00 310.00 L 332.20 288.20 L 333.40 285.00 L 335.50 282.40 L 338.50 280.60 L 342.00 280.00 Z" fill="#ffffff" fill-rule="nonzero" group-id="10" node-id="210" stroke="none" target-height="39.799988" target-width="40" target-x="332" target-y="280"/><path d="M 342.00 285.00 L 362.00 285.00 L 364.50 285.70 L 366.30 287.50 L 367.00 290.00 L 367.00 310.00 L 366.30 312.50 L 364.50 314.30 L 363.40 314.80 L 342.00 315.00 L 339.50 314.30 L 337.70 312.50 L 337.00 310.00 L 337.20 288.60 L 337.70 287.50 L 339.50 285.70 L 342.00 285.00 Z" fill="none" group-id="10" node-id="212" stroke="#3d3d63" stroke-linecap="butt" stroke-width="10" target-height="30" target-width="30" target-x="337" target-y="285"/></g><g node-id="285"><path d="M 293.00 340.00 L 314.80 340.20 L 318.00 341.40 L 319.50 342.40 L 321.60 345.00 L 322.80 348.20 L 323.00 350.00 L 322.80 371.80 L 322.40 373.50 L 320.60 376.50 L 318.00 378.60 L 314.80 379.80 L 291.20 379.80 L 288.00 378.60 L 286.50 377.60 L 284.40 375.00 L 283.20 371.80 L 283.00 370.00 L 283.20 348.20 L 284.40 345.00 L 286.50 342.40 L 289.50 340.60 L 293.00 340.00 Z" fill="#ffffff" fill-rule="nonzero" group-id="11" node-id="216" stroke="none" target-height="39.799988" target-width="40" target-x="283" target-y="340"/><path d="M 293.00 345.00 L 313.00 345.00 L 315.50 345.70 L 317.30 347.50 L 318.00 350.00 L 318.00 370.00 L 317.30 372.50 L 315.50 374.30 L 314.40 374.80 L 293.00 375.00 L 290.50 374.30 L 288.70 372.50 L 288.00 370.00 L 288.20 348.60 L 288.70 347.50 L 290.50 345.70 L 293.00 345.00 Z" fill="none" group-id="11" node-id="218" stroke="#3d3d63" stroke-linecap="butt" stroke-width="10" target-height="30" target-width="30" target-x="288" target-y="345"/></g><g node-id="286"><path d="M 342.00 340.00 L 363.80 340.20 L 367.00 341.40 L 369.60 343.50 L 370.60 345.00 L 371.80 348.20 L 372.00 350.00 L 371.80 371.80 L 370.60 375.00 L 368.50 377.60 L 365.50 379.40 L 363.80 379.80 L 340.20 379.80 L 337.00 378.60 L 334.40 376.50 L 333.40 375.00 L 332.20 371.80 L 332.00 370.00 L 332.20 348.20 L 333.40 345.00 L 335.50 342.40 L 338.50 340.60 L 342.00 340.00 Z" fill="#ffffff" fill-rule="nonzero" group-id="12" node-id="222" stroke="none" target-height="39.799988" target-width="40" target-x="332" target-y="340"/><path d="M 342.00 345.00 L 362.00 345.00 L 364.50 345.70 L 366.30 347.50 L 367.00 350.00 L 367.00 370.00 L 366.30 372.50 L 364.50 374.30 L 363.40 374.80 L 342.00 375.00 L 339.50 374.30 L 337.70 372.50 L 337.00 370.00 L 337.20 348.60 L 337.70 347.50 L 339.50 345.70 L 342.00 345.00 Z" fill="none" group-id="12" node-id="224" stroke="#3d3d63" stroke-linecap="butt" stroke-width="10" target-height="30" target-width="30" target-x="337" target-y="345"/></g><g node-id="287"><path d="M 315.80 477.00 L 276.00 477.00 L 273.20 476.80 L 267.90 475.40 L 263.30 472.70 L 261.20 470.80 L 257.80 466.40 L 255.70 461.40 L 255.00 455.80 L 255.70 450.30 L 257.80 445.30 L 261.20 440.90 L 263.30 439.00 L 267.90 436.30 L 273.20 434.90 L 278.20 434.80 L 284.40 436.00 L 287.30 429.30 L 288.90 426.60 L 290.80 424.00 L 295.20 419.50 L 300.40 415.90 L 303.30 414.50 L 309.40 412.60 L 312.50 412.20 L 315.80 412.00 L 320.10 412.30 L 324.30 413.10 L 328.30 414.50 L 332.00 416.40 L 335.40 418.70 L 338.60 421.50 L 341.30 424.70 L 343.60 428.10 L 345.50 431.80 L 346.90 435.90 L 347.70 440.10 L 348.00 444.50 L 347.70 448.90 L 346.90 453.10 L 345.50 457.20 L 343.60 460.90 L 341.30 464.30 L 338.60 467.50 L 335.40 470.30 L 332.00 472.60 L 328.30 474.50 L 324.30 475.90 L 320.10 476.70 L 315.80 477.00 Z" fill="#bdf39a" fill-rule="nonzero" group-id="13" node-id="228" stroke="none" target-height="65" target-width="93" target-x="255" target-y="412"/><path d="M 315.80 472.00 L 319.50 471.70 L 323.00 471.00 L 326.40 469.80 L 329.50 468.20 L 332.40 466.30 L 335.00 463.90 L 337.30 461.30 L 339.30 458.40 L 340.90 455.20 L 342.00 451.80 L 342.70 448.30 L 343.00 444.50 L 342.70 440.70 L 342.00 437.20 L 340.90 433.80 L 339.30 430.60 L 337.30 427.70 L 335.00 425.10 L 332.40 422.70 L 329.50 420.80 L 326.40 419.20 L 323.00 418.00 L 319.50 417.30 L 315.80 417.00 L 312.10 417.30 L 308.60 418.00 L 305.30 419.10 L 302.10 420.70 L 299.20 422.70 L 296.60 425.00 L 294.20 427.70 L 292.20 430.70 L 289.60 435.80 L 288.40 437.30 L 285.20 439.50 L 281.40 440.20 L 276.00 439.70 L 273.10 439.90 L 270.40 440.70 L 267.90 441.90 L 265.70 443.50 L 263.80 445.40 L 262.20 447.70 L 261.00 450.20 L 260.30 452.90 L 260.00 455.80 L 260.30 458.80 L 261.00 461.50 L 262.20 464.00 L 263.80 466.30 L 265.70 468.20 L 267.90 469.80 L 270.40 471.00 L 273.10 471.70 L 276.00 472.00 L 315.80 472.00 M 315.80 482.00 L 276.00 482.00 L 272.40 481.70 L 269.00 481.10 L 265.90 479.90 L 262.80 478.40 L 260.10 476.60 L 257.60 474.30 L 255.40 471.80 L 253.60 469.10 L 252.00 466.00 L 250.90 462.80 L 250.20 459.40 L 250.00 455.80 L 250.20 452.20 L 250.90 448.90 L 252.00 445.70 L 253.60 442.60 L 255.40 439.90 L 257.60 437.30 L 260.10 435.10 L 262.80 433.30 L 265.90 431.70 L 269.00 430.60 L 272.40 429.90 L 276.00 429.70 L 281.30 430.20 L 283.50 425.80 L 286.10 421.80 L 289.30 418.20 L 292.90 414.90 L 296.80 412.20 L 301.20 410.00 L 304.60 408.70 L 311.90 407.20 L 315.80 407.00 L 323.30 407.80 L 330.30 409.90 L 334.60 412.10 L 338.50 414.80 L 342.10 418.00 L 345.20 421.60 L 347.90 425.60 L 350.10 429.90 L 352.20 436.90 L 353.00 444.50 L 352.20 452.10 L 350.10 459.10 L 347.90 463.50 L 345.20 467.40 L 342.10 471.00 L 338.50 474.20 L 334.60 476.90 L 330.30 479.10 L 323.30 481.20 L 315.80 482.00 Z" fill="#3d3d63" fill-rule="nonzero" group-id="13" node-id="230" stroke="none" target-height="75" target-width="103" target-x="250" target-y="407"/></g><g node-id="288"><path d="M 644.20 412.00 L 647.50 412.20 L 653.70 413.40 L 659.60 415.90 L 664.80 419.50 L 669.20 424.00 L 671.10 426.60 L 672.70 429.30 L 675.60 436.00 L 681.80 434.80 L 684.00 434.70 L 686.80 434.90 L 692.10 436.30 L 696.70 439.00 L 698.80 440.90 L 702.20 445.30 L 704.30 450.30 L 705.00 455.80 L 704.80 458.70 L 703.40 463.90 L 700.70 468.70 L 696.70 472.70 L 692.10 475.40 L 686.80 476.80 L 644.20 477.00 L 639.90 476.70 L 635.70 475.90 L 631.70 474.50 L 628.00 472.60 L 624.60 470.30 L 621.50 467.50 L 618.70 464.30 L 616.40 460.90 L 614.50 457.20 L 613.10 453.10 L 612.30 448.90 L 612.00 444.50 L 612.30 440.10 L 613.10 435.90 L 614.50 431.80 L 616.40 428.10 L 618.70 424.70 L 621.50 421.50 L 624.60 418.70 L 628.00 416.40 L 631.70 414.50 L 635.70 413.10 L 639.90 412.30 L 644.20 412.00 Z" fill="#bdf39a" fill-rule="nonzero" group-id="14" node-id="234" stroke="none" target-height="65" target-width="93" target-x="612" target-y="412"/><path d="M 684.00 472.00 L 686.90 471.70 L 689.60 471.00 L 692.10 469.80 L 694.30 468.20 L 696.20 466.30 L 697.80 464.00 L 699.00 461.50 L 699.70 458.80 L 700.00 455.80 L 699.70 452.90 L 699.00 450.20 L 697.80 447.70 L 696.20 445.40 L 694.30 443.50 L 692.10 441.90 L 689.60 440.70 L 686.90 440.00 L 684.00 439.70 L 678.60 440.20 L 676.70 440.00 L 673.10 438.60 L 670.40 435.80 L 667.80 430.70 L 665.80 427.70 L 663.40 425.00 L 660.80 422.70 L 657.90 420.70 L 654.70 419.10 L 651.40 418.00 L 647.90 417.30 L 644.20 417.00 L 640.50 417.30 L 637.00 418.00 L 633.60 419.20 L 630.50 420.80 L 627.60 422.70 L 625.00 425.10 L 622.70 427.70 L 620.70 430.60 L 619.10 433.80 L 618.00 437.20 L 617.30 440.70 L 617.00 444.50 L 617.30 448.30 L 618.00 451.80 L 619.10 455.20 L 620.70 458.40 L 622.70 461.30 L 625.00 463.90 L 627.60 466.30 L 630.50 468.20 L 633.60 469.80 L 637.00 471.00 L 640.50 471.70 L 644.20 472.00 L 684.00 472.00 M 684.00 482.00 L 644.20 482.00 L 636.70 481.20 L 629.70 479.10 L 625.40 476.90 L 621.50 474.20 L 617.90 471.00 L 614.80 467.40 L 612.10 463.50 L 609.90 459.10 L 608.70 455.70 L 607.20 448.40 L 607.00 444.50 L 607.20 440.60 L 608.70 433.30 L 609.90 429.90 L 612.10 425.50 L 614.80 421.60 L 617.90 418.00 L 621.50 414.80 L 625.40 412.10 L 629.70 409.90 L 633.10 408.70 L 640.40 407.20 L 644.20 407.00 L 651.80 407.80 L 658.80 410.00 L 663.20 412.20 L 667.10 414.90 L 670.70 418.20 L 673.90 421.80 L 676.50 425.80 L 678.70 430.20 L 684.00 429.70 L 687.60 429.90 L 691.00 430.60 L 694.10 431.70 L 697.20 433.30 L 699.90 435.10 L 702.40 437.30 L 704.60 439.90 L 706.40 442.60 L 708.00 445.70 L 709.10 448.90 L 709.80 452.20 L 710.00 455.80 L 709.80 459.40 L 709.10 462.80 L 708.00 466.00 L 706.40 469.10 L 704.60 471.80 L 702.40 474.30 L 699.90 476.60 L 697.20 478.40 L 694.10 479.90 L 691.00 481.10 L 687.60 481.80 L 684.00 482.00 Z" fill="#3d3d63" fill-rule="nonzero" group-id="14" node-id="236" stroke="none" target-height="75" target-width="103" target-x="607" target-y="407"/></g><g node-id="289"><path d="M 757.00 379.00 L 756.70 386.70 L 755.80 394.10 L 754.40 401.10 L 752.40 408.00 L 749.90 414.40 L 747.10 420.30 L 743.70 426.00 L 740.00 431.00 L 735.90 435.50 L 729.10 441.20 L 721.80 445.40 L 717.90 447.00 L 713.90 448.10 L 709.80 448.80 L 705.50 449.00 L 701.20 448.80 L 697.10 448.10 L 693.10 447.00 L 689.20 445.40 L 681.90 441.20 L 678.40 438.60 L 675.10 435.50 L 671.00 431.00 L 667.30 426.00 L 663.90 420.30 L 661.10 414.40 L 658.60 408.00 L 656.60 401.10 L 655.20 394.10 L 654.30 386.70 L 654.00 379.00 L 654.30 371.30 L 655.20 363.90 L 656.60 356.90 L 658.60 350.00 L 661.10 343.60 L 663.90 337.70 L 667.30 332.00 L 671.00 327.00 L 675.10 322.50 L 681.90 316.80 L 689.20 312.60 L 693.10 311.00 L 697.10 309.90 L 701.20 309.20 L 705.50 309.00 L 709.80 309.20 L 713.90 309.90 L 717.90 311.00 L 721.80 312.60 L 729.10 316.80 L 732.60 319.40 L 735.90 322.50 L 740.00 327.00 L 743.70 332.00 L 747.10 337.70 L 749.90 343.60 L 752.40 350.00 L 754.40 356.90 L 755.80 363.90 L 756.70 371.30 L 757.00 379.00 Z" fill="#a4da86" fill-rule="nonzero" group-id="15" node-id="240" stroke="none" target-height="140" target-width="103" target-x="654" target-y="309"/><path d="M 752.00 379.00 L 751.70 386.20 L 750.90 393.00 L 749.60 399.50 L 747.80 405.90 L 745.60 411.90 L 743.00 417.40 L 740.00 422.60 L 736.60 427.30 L 733.00 431.50 L 728.90 435.20 L 724.70 438.20 L 720.20 440.70 L 716.70 442.10 L 713.00 443.10 L 709.30 443.80 L 705.50 444.00 L 701.70 443.80 L 698.00 443.10 L 694.30 442.10 L 690.80 440.70 L 686.30 438.20 L 682.10 435.20 L 678.00 431.50 L 674.40 427.30 L 671.00 422.60 L 668.00 417.40 L 665.40 411.90 L 663.20 405.90 L 661.40 399.50 L 660.10 393.00 L 659.30 386.20 L 659.00 379.00 L 659.30 371.80 L 660.10 365.00 L 661.40 358.50 L 663.20 352.10 L 665.40 346.10 L 668.00 340.60 L 671.00 335.40 L 674.40 330.70 L 678.00 326.50 L 682.10 322.80 L 686.30 319.80 L 690.80 317.30 L 694.30 315.90 L 698.00 314.90 L 701.70 314.20 L 705.50 314.00 L 709.30 314.20 L 713.00 314.90 L 716.70 315.90 L 720.20 317.30 L 724.70 319.80 L 728.90 322.80 L 733.00 326.50 L 736.60 330.70 L 740.00 335.40 L 743.00 340.60 L 745.60 346.10 L 747.80 352.10 L 749.60 358.50 L 750.90 365.00 L 751.70 371.80 L 752.00 379.00 Z" fill="none" group-id="15" node-id="242" stroke="#3d3d63" stroke-linecap="round" stroke-width="10" target-height="130" target-width="93" target-x="659" target-y="314"/></g><path d="M 705.50 477.00 L 705.50 377.00" fill="none" id="直线_347" node-id="67" stroke="#3d3d63" stroke-linecap="round" stroke-width="10" target-height="100" target-width="0" target-x="705.5" target-y="377"/><path d="M 705.50 402.50 L 725.50 382.50" fill="none" id="直线_348" node-id="68" stroke="#3d3d63" stroke-linecap="round" stroke-width="10" target-height="20" target-width="20" target-x="705.5" target-y="382.5"/><g node-id="290"><path d="M 306.00 379.00 L 305.70 386.70 L 304.80 394.10 L 303.40 401.10 L 301.40 408.00 L 298.90 414.40 L 296.10 420.30 L 292.70 426.00 L 289.00 431.00 L 284.90 435.50 L 278.10 441.20 L 270.80 445.40 L 266.90 447.00 L 262.90 448.10 L 258.80 448.80 L 254.50 449.00 L 250.20 448.80 L 246.10 448.10 L 242.10 447.00 L 238.20 445.40 L 230.90 441.20 L 227.40 438.60 L 224.10 435.50 L 220.00 431.00 L 216.30 426.00 L 212.90 420.30 L 210.10 414.40 L 207.60 408.00 L 205.60 401.10 L 204.20 394.10 L 203.30 386.70 L 203.00 379.00 L 203.30 371.30 L 204.20 363.90 L 205.60 356.90 L 207.60 350.00 L 210.10 343.60 L 212.90 337.70 L 216.30 332.00 L 220.00 327.00 L 224.10 322.50 L 230.90 316.80 L 238.20 312.60 L 242.10 311.00 L 246.10 309.90 L 250.20 309.20 L 254.50 309.00 L 258.80 309.20 L 262.90 309.90 L 266.90 311.00 L 270.80 312.60 L 278.10 316.80 L 281.60 319.40 L 284.90 322.50 L 289.00 327.00 L 292.70 332.00 L 296.10 337.70 L 298.90 343.60 L 301.40 350.00 L 303.40 356.90 L 304.80 363.90 L 305.70 371.30 L 306.00 379.00 Z" fill="#a4da86" fill-rule="nonzero" group-id="16" node-id="248" stroke="none" target-height="140" target-width="103" target-x="203" target-y="309"/><path d="M 301.00 379.00 L 300.70 386.20 L 299.90 393.00 L 298.60 399.50 L 296.80 405.90 L 294.60 411.90 L 292.00 417.40 L 289.00 422.60 L 285.60 427.30 L 282.00 431.50 L 277.90 435.20 L 273.70 438.20 L 269.20 440.70 L 265.70 442.10 L 262.00 443.10 L 258.30 443.80 L 254.50 444.00 L 250.70 443.80 L 247.00 443.10 L 243.30 442.10 L 239.80 440.70 L 235.30 438.20 L 231.10 435.20 L 227.00 431.50 L 223.40 427.30 L 220.00 422.60 L 217.00 417.40 L 214.40 411.90 L 212.20 405.90 L 210.40 399.50 L 209.10 393.00 L 208.30 386.20 L 208.00 379.00 L 208.30 371.80 L 209.10 365.00 L 210.40 358.50 L 212.20 352.10 L 214.40 346.10 L 217.00 340.60 L 220.00 335.40 L 223.40 330.70 L 227.00 326.50 L 231.10 322.80 L 235.30 319.80 L 239.80 317.30 L 243.30 315.90 L 247.00 314.90 L 250.70 314.20 L 254.50 314.00 L 258.30 314.20 L 262.00 314.90 L 265.70 315.90 L 269.20 317.30 L 273.70 319.80 L 277.90 322.80 L 282.00 326.50 L 285.60 330.70 L 289.00 335.40 L 292.00 340.60 L 294.60 346.10 L 296.80 352.10 L 298.60 358.50 L 299.90 365.00 L 300.70 371.80 L 301.00 379.00 Z" fill="none" group-id="16" node-id="250" stroke="#3d3d63" stroke-linecap="round" stroke-width="10" target-height="130" target-width="93" target-x="208" target-y="314"/></g><g node-id="291"><path d="M 254.50 477.00 L 254.50 377.00" fill="none" group-id="17" id="直线_347-2" node-id="73" stroke="#3d3d63" stroke-linecap="round" stroke-width="10" target-height="100" target-width="0" target-x="254.5" target-y="377"/><path d="M 254.50 402.50 L 274.50 382.50" fill="none" group-id="17" id="直线_348-2" node-id="74" stroke="#3d3d63" stroke-linecap="round" stroke-width="10" target-height="20" target-width="20" target-x="254.5" target-y="382.5"/></g><g node-id="292"><g node-id="296"><path d="M 711.20 146.40 L 713.60 146.70 L 715.70 147.30 L 717.80 148.20 L 721.10 151.10 L 723.40 154.90 L 724.20 159.40 L 724.00 161.80 L 723.40 164.00 L 721.10 167.80 L 717.80 170.60 L 715.70 171.60 L 713.60 172.20 L 711.20 172.40 L 708.80 172.20 L 706.70 171.60 L 702.80 169.40 L 700.00 166.00 L 699.00 164.00 L 698.40 161.80 L 698.20 159.40 L 698.40 157.10 L 699.00 154.90 L 701.30 151.10 L 704.60 148.20 L 706.70 147.30 L 708.80 146.70 L 711.20 146.40 Z" fill="none" group-id="18,22" node-id="259" stroke="none" target-height="26" target-width="26" target-x="698.2" target-y="146.4"/><path d="M 711.20 154.40 L 709.80 154.60 L 707.70 155.90 L 706.40 158.10 L 706.20 159.40 L 706.40 160.80 L 707.70 163.00 L 709.80 164.20 L 711.20 164.40 L 712.50 164.20 L 714.70 163.00 L 716.00 160.80 L 716.20 159.40 L 716.00 158.10 L 714.70 155.90 L 712.50 154.60 L 711.20 154.40 M 711.20 146.40 L 715.70 147.30 L 719.60 149.50 L 722.40 152.90 L 723.40 154.90 L 724.00 157.10 L 724.20 159.40 L 724.00 161.80 L 723.40 164.00 L 721.10 167.80 L 717.80 170.60 L 713.60 172.20 L 711.20 172.40 L 708.80 172.20 L 706.70 171.60 L 702.80 169.40 L 700.00 166.00 L 699.00 164.00 L 698.40 161.80 L 698.20 159.40 L 698.40 157.10 L 699.00 154.90 L 701.30 151.10 L 704.60 148.20 L 706.70 147.30 L 711.20 146.40 Z" fill="#8682f8" fill-rule="nonzero" group-id="18,22" node-id="261" stroke="none" target-height="26" target-width="26" target-x="698.2" target-y="146.4"/></g><g node-id="297"><path d="M 235.60 216.40 L 238.80 216.70 L 241.70 217.50 L 244.40 218.80 L 246.80 220.60 L 248.90 222.60 L 250.60 225.10 L 251.90 227.80 L 252.70 230.70 L 253.00 233.90 L 252.70 237.00 L 251.90 240.00 L 250.60 242.70 L 248.90 245.10 L 246.80 247.20 L 244.40 248.90 L 241.70 250.20 L 238.80 251.00 L 235.60 251.30 L 232.40 251.00 L 229.50 250.20 L 226.80 248.90 L 224.30 247.20 L 222.30 245.10 L 220.50 242.70 L 219.20 240.00 L 218.50 237.00 L 218.20 233.90 L 218.50 230.70 L 219.20 227.80 L 220.50 225.10 L 222.30 222.60 L 224.30 220.60 L 226.80 218.80 L 229.50 217.50 L 232.40 216.70 L 235.60 216.40 Z" fill="none" group-id="18,23" node-id="265" stroke="none" target-height="34.90001" target-width="34.800003" target-x="218.2" target-y="216.4"/><path d="M 235.60 224.40 L 232.30 225.00 L 230.80 225.70 L 228.90 227.20 L 227.40 229.10 L 226.70 230.60 L 226.20 233.90 L 226.70 237.20 L 227.40 238.60 L 228.90 240.50 L 230.80 242.00 L 232.30 242.70 L 235.60 243.30 L 238.90 242.70 L 240.30 242.00 L 242.20 240.50 L 243.70 238.60 L 244.40 237.20 L 245.00 233.90 L 244.40 230.60 L 243.70 229.10 L 242.20 227.20 L 240.30 225.70 L 238.90 225.00 L 235.60 224.40 M 235.60 216.40 L 238.80 216.70 L 241.70 217.50 L 244.40 218.80 L 246.80 220.60 L 248.90 222.60 L 250.60 225.10 L 251.90 227.80 L 252.70 230.70 L 253.00 233.90 L 252.70 237.00 L 251.90 240.00 L 250.60 242.70 L 248.90 245.10 L 246.80 247.20 L 244.40 248.90 L 241.70 250.20 L 238.80 251.00 L 235.60 251.30 L 232.40 251.00 L 229.50 250.20 L 226.80 248.90 L 224.30 247.20 L 222.30 245.10 L 220.50 242.70 L 219.20 240.00 L 218.50 237.00 L 218.20 233.90 L 218.50 230.70 L 219.20 227.80 L 220.50 225.10 L 222.30 222.60 L 224.30 220.60 L 226.80 218.80 L 229.50 217.50 L 232.40 216.70 L 235.60 216.40 Z" fill="#8682f8" fill-rule="nonzero" group-id="18,23" node-id="267" stroke="none" target-height="34.90001" target-width="34.800003" target-x="218.2" target-y="216.4"/></g><g node-id="298"><path d="M 720.50 415.00 L 723.10 415.30 L 725.50 415.90 L 727.70 417.00 L 729.60 418.40 L 731.30 420.10 L 732.70 422.00 L 733.80 424.20 L 734.40 426.60 L 734.70 429.20 L 734.40 431.70 L 733.80 434.10 L 732.70 436.30 L 731.30 438.30 L 729.60 440.00 L 727.70 441.40 L 725.50 442.40 L 723.10 443.10 L 720.50 443.30 L 717.90 443.10 L 715.60 442.40 L 713.40 441.40 L 711.40 440.00 L 709.70 438.30 L 708.30 436.30 L 707.30 434.10 L 706.60 431.70 L 706.40 429.20 L 706.60 426.60 L 707.30 424.20 L 708.30 422.00 L 709.70 420.10 L 711.40 418.40 L 713.40 417.00 L 715.60 415.90 L 717.90 415.30 L 720.50 415.00 Z" fill="none" group-id="18,24" node-id="271" stroke="none" target-height="28.299988" target-width="28.299988" target-x="706.4" target-y="415"/><path d="M 720.50 423.00 L 718.90 423.30 L 717.40 423.90 L 716.20 424.80 L 715.20 426.10 L 714.60 427.50 L 714.40 429.20 L 714.60 430.80 L 715.20 432.30 L 717.40 434.50 L 718.90 435.10 L 720.50 435.30 L 722.20 435.10 L 723.60 434.50 L 724.90 433.50 L 725.80 432.30 L 726.40 430.80 L 726.70 429.20 L 726.40 427.50 L 725.80 426.10 L 724.90 424.80 L 723.60 423.90 L 722.20 423.30 L 720.50 423.00 M 720.50 415.00 L 723.10 415.30 L 725.50 415.90 L 727.70 417.00 L 729.60 418.40 L 731.30 420.10 L 732.70 422.00 L 733.80 424.20 L 734.40 426.60 L 734.70 429.20 L 734.40 431.70 L 733.80 434.10 L 732.70 436.30 L 731.30 438.30 L 729.60 440.00 L 727.70 441.40 L 725.50 442.40 L 723.10 443.10 L 720.50 443.30 L 717.90 443.10 L 715.60 442.40 L 713.40 441.40 L 711.40 440.00 L 709.70 438.30 L 708.30 436.30 L 707.30 434.10 L 706.60 431.70 L 706.40 429.20 L 706.60 426.60 L 707.30 424.20 L 708.30 422.00 L 709.70 420.10 L 711.40 418.40 L 713.40 417.00 L 715.60 415.90 L 717.90 415.30 L 720.50 415.00 Z" fill="#8682f8" fill-rule="nonzero" group-id="18,24" node-id="273" stroke="none" target-height="28.299988" target-width="28.299988" target-x="706.4" target-y="415"/></g><g node-id="299"><path d="M 523.10 161.60 L 544.00 161.60" fill="none" group-id="18,25" id="直线_271" node-id="86" stroke="#8682f8" stroke-linecap="round" stroke-width="8" target-height="0" target-width="20.900024" target-x="523.1" target-y="161.6"/><path d="M 533.50 151.10 L 533.50 172.00" fill="none" group-id="18,25" id="直线_272" node-id="87" stroke="#8682f8" stroke-linecap="round" stroke-width="8" target-height="20.899994" target-width="0" target-x="533.5" target-y="151.1"/></g><g node-id="300"><path d="M 248.20 470.60 L 272.90 470.60" fill="none" group-id="18,26" id="直线_273" node-id="89" stroke="#8682f8" stroke-linecap="round" stroke-width="8" target-height="0" target-width="24.699997" target-x="248.2" target-y="470.6"/><path d="M 260.60 457.30 L 260.60 482.00" fill="none" group-id="18,26" id="直线_274" node-id="90" stroke="#8682f8" stroke-linecap="round" stroke-width="8" target-height="24.700012" target-width="0" target-x="260.6" target-y="457.3"/></g><g node-id="301"><g node-id="303"><g node-id="305"><path d="M 350.00 121.00 L 350.00 128.30" fill="none" group-id="18,27,29,31" id="直线_269" node-id="94" stroke="#8682f8" stroke-linecap="round" stroke-width="8" target-height="7.300003" target-width="0" target-x="350" target-y="121"/><path d="M 350.00 88.30 L 350.00 95.60" fill="none" group-id="18,27,29,31" id="直线_270" node-id="95" stroke="#8682f8" stroke-linecap="round" stroke-width="8" target-height="7.2999954" target-width="0" target-x="350" target-y="88.3"/></g><g node-id="306"><path d="M 337.30 108.30 L 330.00 108.30" fill="none" group-id="18,27,29,32" id="直线_269-2" node-id="97" stroke="#8682f8" stroke-linecap="round" stroke-width="8" target-height="0" target-width="7.299988" target-x="330" target-y="108.3"/><path d="M 370.00 108.30 L 362.70 108.30" fill="none" group-id="18,27,29,32" id="直线_270-2" node-id="98" stroke="#8682f8" stroke-linecap="round" stroke-width="8" target-height="0" target-width="7.299988" target-x="362.7" target-y="108.3"/></g><g node-id="307"><path d="M 341.00 117.30 L 335.90 122.40" fill="none" group-id="18,27,29,33" id="直线_269-3" node-id="100" stroke="#8682f8" stroke-linecap="round" stroke-width="8" target-height="5.0999985" target-width="5.100006" target-x="335.9" target-y="117.3"/><path d="M 364.20 94.10 L 359.00 99.30" fill="none" group-id="18,27,29,33" id="直线_270-3" node-id="101" stroke="#8682f8" stroke-linecap="round" stroke-width="8" target-height="5.2000046" target-width="5.200012" target-x="359" target-y="94.1"/></g><g node-id="308"><path d="M 359.00 117.30 L 364.20 122.40" fill="none" group-id="18,27,29,34" id="直线_269-4" node-id="103" stroke="#8682f8" stroke-linecap="round" stroke-width="8" target-height="5.0999985" target-width="5.200012" target-x="359" target-y="117.3"/><path d="M 335.90 94.10 L 341.00 99.30" fill="none" group-id="18,27,29,34" id="直线_270-4" node-id="104" stroke="#8682f8" stroke-linecap="round" stroke-width="8" target-height="5.2000046" target-width="5.100006" target-x="335.9" target-y="94.1"/></g></g></g><g node-id="302"><g node-id="304"><g node-id="309"><path d="M 721.00 334.00 L 721.00 341.30" fill="none" group-id="18,28,30,35" id="直线_269-5" node-id="108" stroke="#8682f8" stroke-linecap="round" stroke-width="8" target-height="7.299988" target-width="0" target-x="721" target-y="334"/><path d="M 721.00 301.30 L 721.00 308.60" fill="none" group-id="18,28,30,35" id="直线_270-5" node-id="109" stroke="#8682f8" stroke-linecap="round" stroke-width="8" target-height="7.3000183" target-width="0" target-x="721" target-y="301.3"/></g><g node-id="310"><path d="M 708.30 321.30 L 701.00 321.30" fill="none" group-id="18,28,30,36" id="直线_269-6" node-id="111" stroke="#8682f8" stroke-linecap="round" stroke-width="8" target-height="0" target-width="7.299988" target-x="701" target-y="321.3"/><path d="M 741.00 321.30 L 733.70 321.30" fill="none" group-id="18,28,30,36" id="直线_270-6" node-id="112" stroke="#8682f8" stroke-linecap="round" stroke-width="8" target-height="0" target-width="7.299988" target-x="733.7" target-y="321.3"/></g><g node-id="311"><path d="M 712.00 330.30 L 706.80 335.40" fill="none" group-id="18,28,30,37" id="直线_269-7" node-id="114" stroke="#8682f8" stroke-linecap="round" stroke-width="8" target-height="5.100006" target-width="5.200012" target-x="706.8" target-y="330.3"/><path d="M 735.10 307.10 L 730.00 312.30" fill="none" group-id="18,28,30,37" id="直线_270-7" node-id="115" stroke="#8682f8" stroke-linecap="round" stroke-width="8" target-height="5.1999817" target-width="5.0999756" target-x="730" target-y="307.1"/></g><g node-id="312"><path d="M 730.00 330.30 L 735.10 335.40" fill="none" group-id="18,28,30,38" id="直线_269-8" node-id="117" stroke="#8682f8" stroke-linecap="round" stroke-width="8" target-height="5.100006" target-width="5.0999756" target-x="730" target-y="330.3"/><path d="M 706.80 307.10 L 712.00 312.30" fill="none" group-id="18,28,30,38" id="直线_270-8" node-id="118" stroke="#8682f8" stroke-linecap="round" stroke-width="8" target-height="5.1999817" target-width="5.200012" target-x="706.8" target-y="307.1"/></g></g></g></g></svg>